<svg width="79" height="85" viewBox="0 0 79 85" fill="none" xmlns="http://www.w3.org/2000/svg">
<path d="M62.6075 8.71236C45.7003 8.71236 34.0979 0 25.9564 0C17.8148 0 0.709106 4.65223 0.709106 41.8983C0.709106 79.1444 23.7153 84.5861 32.6795 84.5861C74.607 84.5861 92.5354 8.71236 62.6075 8.71236Z" fill="white"/>
<path d="M12.0563 9.07887L15.5171 5.63904L17.2476 7.35895L13.7867 10.7988L12.0563 9.07887Z" fill="#A4AFC1"/>
<path d="M2.12744 18.9473L5.58831 15.5074L7.31874 17.2274L3.85787 20.6672L2.12744 18.9473Z" fill="#A4AFC1"/>
<path d="M2.58154 7.35895L4.2836 5.63904L7.74444 9.07887L6.01401 10.7988L2.58154 7.35895Z" fill="#A4AFC1"/>
<path d="M19.5454 57.4902C21.2375 57.4902 22.6091 56.1269 22.6091 54.4451C22.6091 52.7634 21.2375 51.4 19.5454 51.4C17.8534 51.4 16.4817 52.7634 16.4817 54.4451C16.4817 56.1269 17.8534 57.4902 19.5454 57.4902Z" fill="#F3F3F1"/>
<path d="M27.4884 71.4469V68.4018C27.4884 65.7233 25.3041 63.5522 22.6092 63.5522H16.5101C13.8152 63.5522 11.6309 65.7233 11.6309 68.4018V71.4469H27.4884Z" fill="#F3F3F1"/>
<path d="M58.636 57.4902C60.328 57.4902 61.6997 56.1269 61.6997 54.4451C61.6997 52.7634 60.328 51.4 58.636 51.4C56.9439 51.4 55.5723 52.7634 55.5723 54.4451C55.5723 56.1269 56.9439 57.4902 58.636 57.4902Z" fill="#F3F3F1"/>
<path d="M66.579 71.4469V68.4018C66.579 65.7233 64.3947 63.5522 61.6998 63.5522H55.6007C52.9058 63.5522 50.7214 65.7233 50.7214 68.4018V71.4469H66.579Z" fill="#F3F3F1"/>
<path d="M30.4953 20.5543H17.8717C15.659 20.5543 13.8435 22.3588 13.8435 24.5581V35.5824C13.8435 37.7817 15.659 39.5862 17.8717 39.5862H21.8999V45.62L28.4529 39.5862H30.467V20.5543H30.4953Z" fill="#DC3755"/>
<path d="M36.0271 19.8213V33.1859C36.0271 35.8644 38.2398 38.0355 40.9064 38.0355H48.8493L56.7923 45.3099V38.0355H61.6715C64.3665 38.0355 66.5508 35.8362 66.5508 33.1859V19.8213C66.5508 17.1427 64.3381 14.9717 61.6715 14.9717H40.9064C38.2398 14.9717 36.0271 17.1709 36.0271 19.8213Z" fill="#DC3755"/>
<path d="M21.985 54.4451C21.985 53.994 22.0985 53.5711 22.2971 53.1763C21.8148 52.1331 20.7652 51.4282 19.5454 51.4282C17.8717 51.4282 16.4817 52.7816 16.4817 54.4733C16.4817 56.1368 17.8433 57.5184 19.5454 57.5184C20.7652 57.5184 21.8148 56.7853 22.2971 55.7703C22.0985 55.3192 21.985 54.8962 21.985 54.4451Z" fill="#D5DBE1"/>
<path d="M21.985 63.5522H16.4817C13.7867 63.5522 11.6024 65.7233 11.6024 68.4018V71.4469H17.1058V68.4018C17.1058 65.7233 19.2901 63.5522 21.985 63.5522Z" fill="#D5DBE1"/>
<path d="M61.0756 54.4451C61.0756 53.994 61.1891 53.5711 61.3877 53.1763C60.9054 52.1331 59.8558 51.4282 58.636 51.4282C56.9623 51.4282 55.5723 52.7816 55.5723 54.4733C55.5723 56.1368 56.9339 57.5184 58.636 57.5184C59.8558 57.5184 60.9054 56.7853 61.3877 55.7703C61.1891 55.3192 61.0756 54.8962 61.0756 54.4451Z" fill="#D5DBE1"/>
<path d="M61.0757 63.5522H55.5724C52.8774 63.5522 50.6931 65.7233 50.6931 68.4018V71.4469H56.1965V68.4018C56.1965 65.7233 58.3808 63.5522 61.0757 63.5522Z" fill="#D5DBE1"/>
<path d="M26.4671 41.4754V39.6145H22.4105C20.1979 39.6145 18.3823 37.81 18.3823 35.6108V24.5864C18.3823 22.3871 20.1979 20.5826 22.4105 20.5826H17.8717C15.659 20.5826 13.8435 22.3871 13.8435 24.5864V35.6108C13.8435 37.81 15.659 39.6145 17.8717 39.6145H21.8999V45.6483L26.4671 41.4754Z" fill="#B72D4F"/>
<path d="M41.5302 33.1859V19.8213C41.5302 17.1427 43.7429 14.9717 46.4094 14.9717H40.9061C38.2112 14.9717 36.0269 17.1709 36.0269 19.8213V33.1859C36.0269 35.8644 38.2395 38.0355 40.9061 38.0355H46.4094C43.7145 38.0355 41.5302 35.8644 41.5302 33.1859Z" fill="#B72D4F"/>
<path d="M54.3525 38.0355H48.8491L56.7921 45.3099V40.263L54.3525 38.0355Z" fill="#B72D4F"/>
<path d="M21.8998 47.1426C21.7012 47.1426 21.4743 47.1144 21.3041 47.0298C20.7651 46.7761 20.3963 46.2404 20.3963 45.6483V41.137H17.8716C14.8079 41.137 12.3115 38.6558 12.3115 35.6107V24.5863C12.3115 21.5412 14.8079 19.0601 17.8716 19.0601H30.4952V22.077H17.8716C16.4816 22.077 15.3469 23.2048 15.3469 24.5863V35.6107C15.3469 36.9923 16.4816 38.1201 17.8716 38.1201H21.8998C22.7225 38.1201 23.4033 38.7968 23.4033 39.6145V42.2084L27.4315 38.5148C27.7152 38.2611 28.084 38.1201 28.4528 38.1201H30.4669V41.137H29.0485L22.9211 46.7479C22.6657 47.0298 22.297 47.1426 21.8998 47.1426Z" fill="#858585"/>
<path d="M56.7923 47.1426C56.3384 47.1426 55.8845 46.9734 55.5441 46.6633L48.1401 39.8682H40.9064C37.1902 39.8682 34.1832 36.8795 34.1832 33.1859V19.8213C34.1832 16.1277 37.1902 13.139 40.9064 13.139H61.6715C65.3877 13.139 68.3947 16.1277 68.3947 19.8213V33.1859C68.3947 36.8795 65.3877 39.8682 61.6715 39.8682H58.6078V45.3381C58.6078 46.0712 58.1823 46.7197 57.5015 47.0016C57.3029 47.1144 57.0476 47.1426 56.7923 47.1426ZM40.9064 16.8044C39.2327 16.8044 37.8427 18.1578 37.8427 19.8495V33.2141C37.8427 34.8776 39.2043 36.2592 40.9064 36.2592H48.8493C49.3032 36.2592 49.7571 36.4284 50.0975 36.7385L54.9767 41.1934V38.0637C54.9767 37.0487 55.7994 36.231 56.8207 36.231H61.6999C63.3736 36.231 64.7636 34.8776 64.7636 33.1859V19.8213C64.7636 18.1578 63.402 16.7762 61.6999 16.7762H40.9064V16.8044Z" fill="#858585"/>
<path d="M19.5454 59.2949C16.8504 59.2949 14.6661 57.1239 14.6661 54.4453C14.6661 51.7667 16.8504 49.5957 19.5454 49.5957C22.2403 49.5957 24.4246 51.7667 24.4246 54.4453C24.4246 57.1239 22.2403 59.2949 19.5454 59.2949ZM19.5454 53.2329C18.8646 53.2329 18.3256 53.7686 18.3256 54.4453C18.3256 55.122 18.8646 55.6577 19.5454 55.6577C20.2262 55.6577 20.7652 55.122 20.7652 54.4453C20.7652 53.7686 20.2262 53.2329 19.5454 53.2329Z" fill="#858585"/>
<path d="M29.3039 71.447H25.6445V68.4019C25.6445 66.7384 24.2828 65.3568 22.5808 65.3568H16.4817C14.808 65.3568 13.418 66.7102 13.418 68.4019V71.447H9.75854V68.4019C9.75854 64.7083 12.7655 61.7196 16.4817 61.7196H22.5808C26.2969 61.7196 29.3039 64.7083 29.3039 68.4019V71.447Z" fill="#858585"/>
<path d="M58.6361 59.2949C55.9412 59.2949 53.7568 57.1239 53.7568 54.4453C53.7568 51.7667 55.9412 49.5957 58.6361 49.5957C61.331 49.5957 63.5153 51.7667 63.5153 54.4453C63.5153 57.1239 61.331 59.2949 58.6361 59.2949ZM58.6361 53.2329C57.9553 53.2329 57.4163 53.7686 57.4163 54.4453C57.4163 55.122 57.9553 55.6577 58.6361 55.6577C59.3169 55.6577 59.8559 55.122 59.8559 54.4453C59.8559 53.7686 59.3169 53.2329 58.6361 53.2329Z" fill="#858585"/>
<path d="M68.3947 71.447H64.7352V68.4019C64.7352 66.7384 63.3735 65.3568 61.6715 65.3568H55.5724C53.8987 65.3568 52.5087 66.7102 52.5087 68.4019V71.447H48.8492V68.4019C48.8492 64.7083 51.8562 61.7196 55.5724 61.7196H61.6715C65.3877 61.7196 68.3947 64.7083 68.3947 68.4019V71.447Z" fill="#858585"/>
<path d="M0 67.8098H78.1815V71.447H0V67.8098Z" fill="#858585"/>
<path d="M59.317 27.9135H54.9767V31.5788H59.317V27.9135Z" fill="#EFEFEF"/>
<path d="M24.4246 29.7461H20.7651V33.4115H24.4246V29.7461Z" fill="#EFEFEF"/>
<path d="M59.3169 21.7949H48.14V25.4603H59.3169V21.7949Z" fill="#EFEFEF"/>
</svg>
