<svg width="77" height="84" viewBox="0 0 77 84" fill="none" xmlns="http://www.w3.org/2000/svg">
<g clip-path="url(#clip0)">
<path d="M61.1596 75.1962C44.4542 75.1962 32.9903 83.7996 24.9459 83.7996C16.9016 83.7996 0 79.1906 0 42.3188C0 5.44697 22.7316 0 31.5888 0C73.0439 0 90.7303 75.1962 61.1596 75.1962Z" fill="white"/>
<path d="M37.9234 54.5256C37.9234 54.5256 50.5926 48.939 50.5926 37.7657C50.5926 33.2964 50.5926 28.3243 50.5926 28.3243L37.9234 24.4695L25.2543 28.3243V37.7657C25.2543 48.9669 37.9234 54.5256 37.9234 54.5256Z" fill="#DA3855"/>
<path d="M30.6919 37.7936C30.6919 31.0896 30.6919 28.3522 30.6919 28.3522L40.6423 25.3075L37.9234 24.4695L25.2543 28.3243V37.7657C25.2543 48.939 37.9234 54.5256 37.9234 54.5256C37.9234 54.5256 39.0726 54.0228 40.6423 53.0172C36.9144 50.6987 30.6919 45.6149 30.6919 37.7936Z" fill="#B21B43"/>
<path d="M74.3535 4.38435L70.9446 7.78162L72.649 9.48025L76.058 6.08298L74.3535 4.38435Z" fill="#858585"/>
<path d="M73.4984 13.7175L71.7939 15.4161L75.2028 18.8134L76.9073 17.1148L73.4984 13.7175Z" fill="#858585"/>
<path d="M63.6916 3.93198L61.9872 5.63062L65.3961 9.02788L67.1006 7.32925L63.6916 3.93198Z" fill="#858585"/>
<path d="M37.9236 56.3412C38.1758 56.3412 38.4281 56.2854 38.6523 56.1736C39.2129 55.9222 52.4146 49.9725 52.4146 37.7657V28.3242C52.4146 27.5421 51.8821 26.8438 51.1253 26.5924L38.4561 22.7376C38.1198 22.6259 37.7274 22.6259 37.391 22.7376L24.7218 26.5924C23.965 26.8159 23.4325 27.5142 23.4325 28.3242V37.7657C23.4325 49.9725 36.6342 55.9222 37.1948 56.1736C37.419 56.2854 37.6713 56.3412 37.9236 56.3412ZM27.0763 37.7936V29.665L37.9516 26.341L48.8269 29.665V37.7936C48.8269 46.1736 40.5022 51.2015 37.9516 52.5423C35.3729 51.1736 27.0763 46.2015 27.0763 37.7936Z" fill="#858585"/>
<path d="M41.8196 64.6095L44.7627 61.6765L41.8757 58.7994L35.1487 65.5034C34.7563 65.8944 34.5601 66.3972 34.5601 66.928C34.5601 67.4587 34.7843 67.9894 35.1487 68.3526L41.8757 75.0565L44.7627 72.2073L41.287 68.7436C56.1705 67.0676 67.7746 54.4698 67.7746 39.1903H63.7104C63.7104 52.0675 54.1804 62.7101 41.8196 64.6095Z" fill="#858585"/>
<path d="M12.1366 39.2181C12.1366 35.3633 13.0055 31.6203 14.6032 28.2404L15.7244 32.4583L19.6484 31.3968L17.0698 21.8157C16.7895 20.7263 15.6963 20.0839 14.6032 20.3632L4.96118 22.9331L6.02629 26.8437L11.548 25.3633C9.27767 29.5812 8.10044 34.3019 8.10044 39.1902C8.10044 51.816 16.1168 63.0731 28.0011 67.2351L29.3465 63.4083C19.0318 59.8608 12.1366 50.1121 12.1366 39.2181Z" fill="#858585"/>
<path d="M64.9154 26.6203C60.0944 16.2571 49.5835 9.46936 37.9233 9.46936C31.1123 9.46936 24.7216 11.704 19.4802 15.9219L22.0308 19.0784C26.5715 15.4471 32.0652 13.5476 37.9233 13.5476C47.5093 13.5476 56.1983 18.8549 60.5989 27.0673L56.7869 24.8605L54.7688 28.3801L63.4018 33.3522C63.7101 33.5478 64.0745 33.6316 64.4109 33.6316C65.1116 33.6316 65.7843 33.2684 66.1767 32.626L71.1659 24.0226L67.6342 22.0114L64.9154 26.6203Z" fill="#858585"/>
<path d="M47.1169 33.9947L44.4541 31.5366L36.662 39.9166L32.4856 35.7545L29.935 38.2965L35.4287 43.7714C35.7651 44.1066 36.2416 44.3021 36.7181 44.3021H36.7461C37.2506 44.3021 37.6991 44.0786 38.0354 43.7155L47.1169 33.9947Z" fill="white"/>
</g>
<defs>
<clipPath id="clip0">
<rect width="76.9119" height="83.7996" fill="white"/>
</clipPath>
</defs>
</svg>
