<svg width="79" height="85" viewBox="0 0 79 85" fill="none" xmlns="http://www.w3.org/2000/svg">
<path d="M62.6074 8.71236C45.7003 8.71236 34.0979 0 25.9563 0C17.8148 0 0.709106 4.65223 0.709106 41.8983C0.709106 79.1444 23.7153 84.5861 32.6795 84.5861C74.6353 84.5861 92.5354 8.71236 62.6074 8.71236Z" fill="white"/>
<path d="M67.203 10.7141C65.1889 10.7141 63.5436 9.07877 63.5436 7.0769C63.5436 5.07503 65.1889 3.4397 67.203 3.4397C69.2171 3.4397 70.8625 5.07503 70.8625 7.0769C70.8625 9.07877 69.2171 10.7141 67.203 10.7141ZM67.203 5.8645C66.5222 5.8645 65.9832 6.40021 65.9832 7.0769C65.9832 7.75358 66.5222 8.2893 67.203 8.2893C67.8839 8.2893 68.4228 7.75358 68.4228 7.0769C68.4228 6.40021 67.8555 5.8645 67.203 5.8645Z" fill="#A4AFC1"/>
<path d="M61.6995 69.6143H16.4814C13.7865 69.6143 11.6022 67.4433 11.6022 64.7647V34.3983H66.5788V64.7647C66.5788 67.4433 64.3945 69.6143 61.6995 69.6143Z" fill="white"/>
<path d="M66.5788 34.3983H11.6022V24.6991C11.6022 22.0205 13.7865 19.8495 16.4814 19.8495H61.6995C64.3945 19.8495 66.5788 22.0205 66.5788 24.6991V34.3983Z" fill="#DC3755"/>
<path d="M17.1055 64.7647V34.3983H11.6022V64.7647C11.6022 67.4433 13.7865 69.6143 16.4814 69.6143H21.9847C19.2898 69.6143 17.1055 67.4433 17.1055 64.7647Z" fill="#D5DBE1"/>
<path d="M21.9847 19.8213H16.4814C13.7865 19.8213 11.6022 21.9923 11.6022 24.6709V34.3983H17.1055V24.6991C17.1055 22.0205 19.2898 19.8213 21.9847 19.8213Z" fill="#B72D4F"/>
<path d="M61.6996 71.447H16.4815C12.7653 71.447 9.7583 68.4583 9.7583 64.7647V24.6991C9.7583 21.0056 12.7653 18.0168 16.4815 18.0168H61.6996C65.4158 18.0168 68.4228 21.0056 68.4228 24.6991V64.7647C68.4228 68.4583 65.4158 71.447 61.6996 71.447ZM16.4815 21.654C14.8078 21.654 13.4177 23.0074 13.4177 24.6991V64.7647C13.4177 66.4283 14.7794 67.8098 16.4815 67.8098H61.6996C63.3733 67.8098 64.7633 66.4564 64.7633 64.7647V24.6991C64.7633 23.0356 63.4017 21.654 61.6996 21.654H16.4815Z" fill="#858585"/>
<path d="M11.6022 32.5938H66.5788V36.231H11.6022V32.5938Z" fill="#858585"/>
<path d="M21.9847 13.1672H25.6442V27.7442H21.9847V13.1672Z" fill="#858585"/>
<path d="M52.537 13.1672H56.1964V27.7442H52.537V13.1672Z" fill="#858585"/>
<path d="M0 67.8098H78.1814V71.447H0V67.8098Z" fill="#858585"/>
<path d="M21.3892 50.8081H26.2684V53.2329H21.3892V50.8081Z" fill="#A4AFC1"/>
<path d="M51.9127 50.8081H56.792V53.2329H51.9127V50.8081Z" fill="#A4AFC1"/>
<path d="M39.0907 61.5787C38.3815 61.5787 37.7007 61.1558 37.417 60.5073L30.3818 45.0562L33.7292 43.5337L39.0907 55.2912L44.4522 43.5337L47.7996 45.0562L40.7644 60.5073C40.4807 61.1558 39.8283 61.5787 39.0907 61.5787Z" fill="#858585"/>
</svg>
