<svg width="80" height="85" viewBox="0 0 80 85" fill="none" xmlns="http://www.w3.org/2000/svg">
<path d="M16.5704 75.9019C33.4775 75.9019 45.0799 84.6143 53.2215 84.6143C61.363 84.6143 78.4687 79.962 78.4687 42.716C78.4687 5.4699 55.4625 0 46.4983 0C4.54246 0 -13.3859 75.9019 16.5704 75.9019Z" fill="white"/>
<path d="M13.8186 16.1842H18.6979V18.609H13.8186V16.1842Z" fill="#A4AFC1"/>
<path d="M22.3573 7.69727H24.7969V12.5469H22.3573V7.69727Z" fill="#A4AFC1"/>
<path d="M41.9028 19.8213C41.9028 17.1427 44.1155 14.9717 46.7821 14.9717H62.668C65.3629 14.9717 67.5472 17.1709 67.5472 19.8213V52.6125C67.5472 55.291 65.3346 57.4621 62.668 57.4621H46.7821C44.0871 57.4621 41.9028 55.291 41.9028 52.6125V19.8213Z" fill="#DC3755"/>
<path d="M19.9177 53.825H40.6828C44.7394 53.825 48.0017 57.0956 48.0017 61.0993V69.5861H12.5704V61.0993C12.5704 57.0956 15.8611 53.825 19.9177 53.825Z" fill="#F3F3F1"/>
<path d="M30.3002 43.0261C35.3607 43.0261 39.463 38.9487 39.463 33.919C39.463 28.8893 35.3607 24.8119 30.3002 24.8119C25.2398 24.8119 21.1375 28.8893 21.1375 33.919C21.1375 38.9487 25.2398 43.0261 30.3002 43.0261Z" fill="#F3F3F1"/>
<path d="M60.2283 44.7178V42.8851C60.2283 40.8833 58.583 39.2479 56.5689 39.2479H52.9094C50.8953 39.2479 49.25 40.8833 49.25 42.8851V44.7178H60.2283Z" fill="#F3F3F1"/>
<path d="M62.6679 14.9717C61.3062 14.9717 60.2282 16.0713 60.2282 17.3965C60.2282 18.7499 59.1219 19.8213 57.7886 19.8213H51.6896C50.3279 19.8213 49.2499 18.7217 49.2499 17.3965C49.2499 16.0431 48.1436 14.9717 46.8103 14.9717H62.6679Z" fill="#858585"/>
<path d="M39.4347 33.4397C38.1298 33.637 34.1867 31.6352 30.3003 31.5788C26.1302 31.5506 22.0169 33.4679 21.1659 33.3833C21.4212 28.5901 25.4211 24.8119 30.3003 24.8119C35.1795 24.8119 39.2078 28.6465 39.4347 33.4397Z" fill="#DC3755"/>
<path d="M25.4211 53.825H19.9177C15.8612 53.825 12.5989 57.0956 12.5989 61.0993V69.5861H18.1022V61.0993C18.0738 57.0956 21.3645 53.825 25.4211 53.825Z" fill="#D5DBE1"/>
<path d="M26.6408 33.919C26.6408 29.8589 29.3357 26.4472 33.0519 25.263C32.1725 24.9811 31.2647 24.8119 30.3002 24.8119C25.2508 24.8119 21.1375 28.9002 21.1375 33.919C21.1375 38.9378 25.2508 43.0261 30.3002 43.0261C31.2647 43.0261 32.1725 42.8287 33.0519 42.575C29.3357 41.419 26.6408 38.0073 26.6408 33.919Z" fill="#D5DBE1"/>
<path d="M57.4766 39.3889C57.193 39.3043 56.8809 39.2479 56.5689 39.2479H52.9094C50.8953 39.2479 49.25 40.8833 49.25 42.8851V44.7178H54.7533V42.8851C54.725 41.2216 55.9164 39.8118 57.4766 39.3889Z" fill="#D5DBE1"/>
<path d="M54.725 17.3965C54.725 16.0431 53.6186 14.9717 52.2853 14.9717H46.782C48.1436 14.9717 49.2216 16.0713 49.2216 17.3965C49.2216 18.7499 50.328 19.8213 51.6612 19.8213H57.1646C55.8313 19.8213 54.725 18.7499 54.725 17.3965Z" fill="#858585"/>
<path d="M33.0518 25.2912C32.1725 25.0093 31.2647 24.8401 30.3002 24.8401C25.4209 24.8401 21.4211 28.6183 21.1658 33.4115C22.187 33.4961 24.4848 32.5938 26.8961 31.9453C27.662 28.3081 29.9314 26.7574 33.0518 25.2912Z" fill="#B72D4F"/>
<path d="M47.4058 52.6125V19.8213C47.4058 17.1427 49.6185 14.9717 52.2851 14.9717H46.7817C44.0868 14.9717 41.9025 17.1709 41.9025 19.8213V52.6125C41.9025 55.291 44.0868 57.4621 46.7817 57.4621H52.2851C49.5901 57.4903 47.4058 55.3192 47.4058 52.6125Z" fill="#B72D4F"/>
<path d="M30.3004 44.8588C24.2297 44.8588 19.2937 39.9528 19.2937 33.919C19.2937 27.8852 24.2297 22.9792 30.3004 22.9792C36.3711 22.9792 41.3071 27.8852 41.3071 33.919C41.3071 39.9528 36.3711 44.8588 30.3004 44.8588ZM30.3004 26.6446C26.2722 26.6446 22.9815 29.9153 22.9815 33.919C22.9815 37.9228 26.2722 41.1934 30.3004 41.1934C34.3286 41.1934 37.6193 37.9228 37.6193 33.919C37.6193 29.9153 34.3286 26.6446 30.3004 26.6446Z" fill="#858585"/>
<path d="M48.0018 71.447H12.5705C11.5492 71.447 10.7266 70.6293 10.7266 69.6143V61.1275C10.7266 56.1087 14.8399 52.0204 19.8893 52.0204H40.6545C45.704 52.0204 49.8173 56.1087 49.8173 61.1275V69.6143C49.8456 70.6293 49.023 71.447 48.0018 71.447ZM14.4144 67.8098H46.1862V61.1275C46.1862 58.1106 43.7182 55.6576 40.6829 55.6576H19.9177C16.8824 55.6576 14.4144 58.1106 14.4144 61.1275V67.8098Z" fill="#858585"/>
<path d="M54.7247 35.0188C52.7106 35.0188 51.0653 33.3835 51.0653 31.3816C51.0653 29.3797 52.7106 27.7444 54.7247 27.7444C56.7389 27.7444 58.3842 29.3797 58.3842 31.3816C58.4125 33.3835 56.7672 35.0188 54.7247 35.0188Z" fill="#858585"/>
<path d="M22.9814 50.5542C21.4496 50.5542 20.2014 49.3137 20.2014 47.7911C20.2014 46.2686 21.4496 45.028 22.9814 45.028C24.5133 45.028 25.7615 46.2686 25.7615 47.7911C25.7615 49.3137 24.5133 50.5542 22.9814 50.5542Z" fill="#858585"/>
<path d="M62.0721 44.7179H58.4127V42.8852C58.4127 41.8702 57.59 41.0525 56.5688 41.0525H52.9093C51.8881 41.0525 51.0654 41.8702 51.0654 42.8852V44.7179H47.406V42.8852C47.406 39.8683 49.874 37.4153 52.9093 37.4153H56.5688C59.6041 37.4153 62.0721 39.8683 62.0721 42.8852V44.7179Z" fill="#858585"/>
<path d="M62.668 59.2948H54.7251V55.6576H62.668C64.3417 55.6576 65.7318 54.3042 65.7318 52.6125V19.8213C65.7318 18.1578 64.3701 16.7762 62.668 16.7762H46.7821C45.1084 16.7762 43.7184 18.1296 43.7184 19.8213V25.4886H40.059V19.8213C40.059 16.1277 43.0659 13.139 46.7821 13.139H62.668C66.3842 13.139 69.3912 16.1277 69.3912 19.8213V52.6125C69.3912 56.3061 66.3842 59.2948 62.668 59.2948Z" fill="#858585"/>
<path d="M0.968018 67.8098H79.1495V71.447H0.968018V67.8098Z" fill="#858585"/>
<path d="M21.1375 33.4678H18.5844C16.7972 33.4678 15.3505 35.1595 15.3505 37.2178V44.041C15.3505 46.1275 16.7972 47.791 18.5844 47.791H21.1375" stroke="#858585" stroke-width="2" stroke-miterlimit="10" stroke-linecap="round" stroke-linejoin="round"/>
</svg>
